<?xml version="1.0" encoding="UTF-8"?>
<!DOCTYPE svg PUBLIC "-//W3C//DTD SVG 1.1//EN" "http://www.w3.org/Graphics/SVG/1.1/DTD/svg11.dtd">
<!-- Creator: CorelDRAW X7 -->
<svg xmlns="http://www.w3.org/2000/svg" xml:space="preserve" width="32px" height="32px" version="1.1" style="shape-rendering:geometricPrecision; text-rendering:geometricPrecision; image-rendering:optimizeQuality; fill-rule:evenodd; clip-rule:evenodd"
viewBox="0 0 32 32"
 xmlns:xlink="http://www.w3.org/1999/xlink"
 enable-background="new 0 0 100 100"
 baseProfile="tiny">
 <defs>
  <style type="text/css">
   <![CDATA[
    .fil2 {fill:#FEFEFE}
    .fil0 {fill:#E5A32B}
    .fil1 {fill:#E6C61D}
   ]]>
  </style>
 </defs>
 <g id="Capa_x0020_1">
  <metadata id="CorelCorpID_0Corel-Layer"/>
  <polygon class="fil0" points="2,1 5,28 16,31 27,28 30,1 2,1 "/>
  <polygon class="fil1" points="16,29 25,26 27,3 16,3 "/>
  <path class="fil2" d="M19 10l6 0 0 -3c-4,0 -9,0 -9,0l0 9 6 0 0 3 -6 0 0 4 9 -2 0 -8 -6 0 0 -1 0 -2z"/>
  <path class="fil2" d="M6 20c3,1 6,2 9,3l0 -16 -3 0 0 12 -3 0 0 -2 -3 0 0 3z"/>
 </g>
</svg>
