<?xml version="1.0" encoding="UTF-8"?>
<!DOCTYPE svg PUBLIC "-//W3C//DTD SVG 1.1//EN" "http://www.w3.org/Graphics/SVG/1.1/DTD/svg11.dtd">
<!-- Creator: CorelDRAW X7 -->
<svg xmlns="http://www.w3.org/2000/svg" xml:space="preserve" width="32px" height="32px" version="1.1" style="shape-rendering:geometricPrecision; text-rendering:geometricPrecision; image-rendering:optimizeQuality; fill-rule:evenodd; clip-rule:evenodd"
viewBox="0 0 32 32"
 xmlns:xlink="http://www.w3.org/1999/xlink"
 baseProfile="tiny"
 enable-background="new 0 0 16 16">
 <defs>
  <style type="text/css">
   <![CDATA[
    .fil0 {fill:#70C173}
    .fil2 {fill:#0B7046}
    .fil1 {fill:white}
   ]]>
  </style>
 </defs>
 <g id="Capa_x0020_1">
  <metadata id="CorelCorpID_0Corel-Layer"/>
  <polygon class="fil0" points="16,29 25,26 27,3 16,3 "/>
  <ellipse class="fil1" cx="16" cy="16" rx="4" ry="5"/>
  <g id="_510906227504">
   <path class="fil2" d="M16 8c-5,0 -8,3 -13,8 5,5 8,8 13,8 5,0 8,-3 13,-8 -5,-5 -9,-8 -13,-8l0 0zm0 11c-2,0 -3,-1 -3,-3 0,-2 1,-3 3,-3 2,0 3,1 3,3 0,2 -1,3 -3,3l0 0z"/>
  </g>
 </g>
</svg>
