<?xml version="1.0" encoding="UTF-8"?>
<!DOCTYPE svg PUBLIC "-//W3C//DTD SVG 1.1//EN" "http://www.w3.org/Graphics/SVG/1.1/DTD/svg11.dtd">
<!-- Creator: CorelDRAW X7 -->
<svg xmlns="http://www.w3.org/2000/svg" xml:space="preserve" width="200px" height="40px" version="1.1" style="shape-rendering:geometricPrecision; text-rendering:geometricPrecision; image-rendering:optimizeQuality; fill-rule:evenodd; clip-rule:evenodd"
viewBox="0 0 200 40"
 xmlns:xlink="http://www.w3.org/1999/xlink">
 <defs>
  <style type="text/css">
   <![CDATA[
    .fil0 {fill:white}
   ]]>
  </style>
 </defs>
 <g id="Layer_x0020_1">
  <metadata id="CorelCorpID_0Corel-Layer"/>
  <path class="fil0" d="M11 13c-1,1 -2,1 -2,2 0,1 0,1 1,1l1 0c-2,1 -2,1 -2,3l2 0c-1,1 -2,1 -2,2 0,1 1,1 2,1 -2,1 -2,1 -2,3 1,0 0,0 1,0 0,0 0,0 0,0l1 0c-2,1 -2,0 -2,3 1,0 1,0 2,0l0 2 16 0 1 -7c-3,2 -2,2 -2,6l-13 0c0,-4 1,-2 2,-4 -1,-2 0,-1 -2,-1 0,-2 1,0 2,-2 -1,-3 0,0 -2,-1 0,-2 1,0 2,-2 0,-1 0,-1 -1,-1l-1 0c1,-1 1,-1 2,-2 -1,-3 0,0 -2,-1 0,-1 1,-1 2,-2 0,-1 -1,-1 -1,-1 -1,0 -1,1 -1,0 1,-1 10,-1 13,-1l0 4c2,-1 2,-2 2,-5l-17 0 0 3zm5 5l6 0 0 2 -6 0 0 -2zm0 -2l8 0 0 1 -8 0 0 -1zm0 -3l8 0 0 1 -8 0 0 -1zm3 13l3 0 -1 -1c-1,-1 -1,-1 -1,-1l-1 2zm2 -4c0,1 1,2 2,3 3,-2 7,-6 9,-8l-3 -3c-3,3 -5,5 -8,8z"/>
  <path class="fil0" d="M66 13c2,1 3,2 3,4 -2,-1 -2,-4 -5,-3 0,2 1,3 1,4l-1 2c-4,-1 -4,-4 -8,-1 -1,2 -5,4 -5,6 0,1 0,1 1,1 2,0 3,-3 5,-3 0,1 -3,3 -4,4l2 2c2,-1 2,-2 4,-3 -1,2 -1,2 -2,3l2 1c1,-1 2,-2 3,-3l-1 3c2,1 2,1 4,-1 -1,-2 -2,-2 0,-4 1,-2 2,-2 5,-2l2 -3c1,1 1,1 2,0 1,0 2,-1 2,-2l-6 -8 -4 3zm1 17l1 -2c-1,0 -1,-1 -2,-1 0,1 0,2 1,3zm3 -4c1,-1 1,-1 1,-2l-3 0c1,1 0,0 1,1 0,0 1,0 1,1zm-1 2l1 -1c-3,-4 -6,-2 -1,1zm-25 -8l3 1c1,0 1,0 1,-1 1,0 2,1 3,1 1,-1 4,-3 6,-4 4,-2 4,2 7,1 0,-2 -2,-4 -3,-5 -1,0 -3,0 -5,0 -2,0 -3,0 -5,0 0,1 -1,2 -2,3l2 -5 -4 -2 -3 11z"/>
  <path class="fil0" d="M91 32l17 0c4,-12 8,-10 -11,-10 -3,0 -3,2 -4,4 0,2 -1,4 -2,6zm7 -14l-2 0c1,-3 0,-3 0,-6l6 0c1,1 1,1 1,3 -3,0 3,-1 -6,-1 1,2 1,0 1,2 0,1 0,2 0,2zm-5 -3c0,-4 0,-4 -2,-6 4,0 7,-1 8,2 -1,0 -1,0 -2,0 -1,0 -1,0 -1,0 -1,0 0,0 -1,0l0 4 -2 0zm-3 -7c0,1 0,1 1,2 0,0 0,1 1,1 1,3 0,3 0,5l3 0c0,3 -2,0 -5,1 -1,2 -1,12 0,14 1,-1 2,-5 2,-7 3,-6 7,0 7,-8l10 0c0,3 0,2 0,4l0 1c1,-1 2,-5 0,-6l-5 0c0,-2 0,-2 -1,-4 -2,0 -2,0 -3,-1 -1,-1 -1,-1 -2,-2 -2,0 -7,0 -8,0z"/>
  <path class="fil0" d="M138 17c-7,0 -10,-1 -9,3 1,3 -1,1 0,4 1,2 0,1 1,3 0,0 1,0 1,0 1,2 -2,4 9,3 4,0 0,-1 6,-2l1 3 5 0 0 -15 -5 0c-1,1 0,1 -1,2 -2,-1 0,-2 -5,-4 -4,-2 -3,-2 -5,-5 -6,2 0,6 2,8z"/>
  <path class="fil0" d="M179 24c0,0 0,0 0,0 0,0 0,0 0,0 0,0 1,0 2,0 0,0 1,0 2,0 1,0 2,0 3,-1 0,-2 0,-1 -1,-2 -7,-2 -12,2 -16,7 0,1 -3,5 -3,6l10 0 1 -5 12 0c1,-2 2,-3 3,-5 0,0 2,-3 3,-4 -3,0 -3,0 -4,1 -2,2 -4,4 -8,4 -1,0 -1,0 -2,0 0,0 -1,0 -1,0 -1,-1 -1,-1 -1,-1zm4 -8l2 0c0,0 0,1 0,1l0 1c0,1 -1,0 -2,0l0 -2zm-1 2c-1,1 -3,0 -3,0 0,0 0,-2 0,-2l3 0 0 2zm5 -2l3 0c-1,1 -2,2 -3,2l0 -2zm-9 2c-1,0 -3,-1 -3,-2l2 0 1 2zm5 -6l2 0 0 2 -2 0 0 -2zm-1 0l0 2 -3 0 0 -2 3 0zm-7 2c1,0 2,-1 3,-1l-1 1 0 0 -1 0 -1 0zm12 -1c1,0 2,1 2,1l-2 0 0 -1zm-4 -5c1,0 1,2 2,3l-2 -1 0 -2zm-3 3c0,-1 1,-3 2,-3l0 0 0 2 0 0 -2 1zm6 -2c1,0 2,2 3,3 0,0 -2,-1 -2,-1 -1,0 -1,-2 -1,-2zm-10 3c0,-1 2,-3 3,-3 0,0 -1,2 -1,2 0,0 -2,1 -2,1zm-1 8l1 0c0,-1 0,-1 0,-1 1,0 1,1 2,0 1,0 2,0 3,0 2,0 3,0 5,1 1,0 0,0 1,-1l2 0c0,0 -1,1 -1,1 0,1 0,1 0,2 0,-1 2,-3 3,-4 2,-5 -2,-11 -7,-12 -6,-1 -11,4 -11,9 0,2 1,5 2,5z"/>
 </g>
</svg>
